Coordinates
version=1
nRows=12
nColumns=53
inDegrees=yes

Units are S.I. units (second, meters, Newtons, ...)
If the header above contains a line with 'inDegrees', this indicates whether rotational values are in degrees (yes) or radians (no).

endheader
time	pelvis_tilt	pelvis_list	pelvis_rot	pelvis_tx	pelvis_ty	pelvis_tz	hip_flex_r	hip_add_r	hip_rot_r	pf_flex_r	pf_rot_r	pf_tilt_r	pf_tx_r	pf_ty_r	pf_tz_r	knee_flex_r	knee_add_r	knee_rot_r	knee_tx_r	knee_ty_r	knee_tz_r	ankle_flex_r	subt_angle_r	mtp_angle_r	hip_flex_l	hip_add_l	hip_rot_l	pf_l_r3	pf_l_tx	pf_l_ty	knee_flex_l	ankle_flex_l	subt_angle_l	mtp_angle_l	lumbar_ext	lumbar_latbend	lumbar_rot	neck_ext	neck_latbend	neck_rot	arm_add_r	arm_flex_r	arm_rot_r	elbow_flex_r	pro_sup_r	wrist_flex_r	arm_add_l	arm_flex_l	arm_rot_l	elbow_flex_l	pro_sup_l	wrist_flex_l
      0.20000000	      1.55860430	      3.73345594	     -3.31809802	     -0.34018746	      0.93277300	      0.16410754	     26.39745705	     -1.20724281	      0.81100720	     15.28765925	     -1.87430498	     -3.92195263	      0.04330533	     -0.01372901	      0.00603692	     31.66948963	     -0.36693900	     -0.56645893	      0.00327320	      0.00256774	     -0.00120685	     19.65676087	      2.79347848	      0.00000000	     -5.90019748	     -4.24661757	      3.58661051	      0.06513700	      0.04435000	     -0.41871200	      0.74728650	     -0.07923421	     -0.21214414	      0.00000000	    -23.90116206	      0.40230765	      3.92840770	     11.91437685	      0.00000000	      0.00000000	    -12.86602016	      0.00000000	      0.00000000	     79.99175530	     45.03186608	      0.00000000	    -12.86602016	      0.00000000	      0.00000000	     79.99175530	     45.03186608	      0.00000000
      0.20833333	      1.47276454	      3.65382122	     -3.39105212	     -0.33212066	      0.93444200	      0.16552140	     25.80968057	     -1.09954370	      0.52707561	     15.19698575	     -1.86801119	     -3.94261878	      0.04339064	     -0.01360340	      0.00603697	     31.48543190	     -0.36767520	     -0.54622058	      0.00327803	      0.00256689	     -0.00120643	     20.01291570	      2.99129223	      0.00000000	     -4.53290009	     -3.74761928	      4.22604786	      0.06513700	      0.04435000	     -0.41871200	      0.78762350	     -0.11842716	     -0.22274466	      0.00000000	    -23.75254680	      0.40896170	      4.48138716	     11.91067879	      0.00000000	      0.00000000	    -12.86893755	      0.00000000	      0.00000000	     79.99177470	     45.03162972	      0.00000000	    -12.86893755	      0.00000000	      0.00000000	     79.99177470	     45.03162972	      0.00000000
      0.21666667	      1.41176367	      3.57825729	     -3.44281822	     -0.32414293	      0.93622726	      0.16701242	     25.16030589	     -0.99920786	      0.23258071	     15.07443993	     -1.85940883	     -3.97088277	      0.04350565	     -0.01343261	      0.00603659	     31.23603152	     -0.36864224	     -0.51863898	      0.00328487	      0.00256554	     -0.00120589	     20.31725609	      3.17511527	      0.00000000	     -3.24843751	     -3.16978256	      4.91404928	      0.06513700	      0.04435000	     -0.41871200	      0.82507850	     -0.15861583	     -0.23095557	      0.00000000	    -23.62253629	      0.38972548	      4.98848707	     11.90732714	      0.00000000	      0.00000000	    -12.87158842	      0.00000000	      0.00000000	     79.99179231	     45.03141619	      0.00000000	    -12.87158842	      0.00000000	      0.00000000	     79.99179231	     45.03141619	      0.00000000
      0.22500000	      1.33910912	      3.52917116	     -3.44501228	     -0.31633014	      0.93804327	      0.16850496	     24.50170952	     -0.93201408	     -0.05156077	     14.92820971	     -1.84899152	     -4.00512368	      0.04364251	     -0.01322718	      0.00603546	     30.93738133	     -0.36975163	     -0.48537693	      0.00329352	      0.00256359	     -0.00120529	     20.58759654	      3.33505501	      0.00000000	     -1.98064116	     -2.55383075	      5.58003893	      0.06513700	      0.04435000	     -0.41871200	      0.86032965	     -0.19118728	     -0.23618069	      0.00000000	    -23.47588179	      0.32750464	      5.44572932	     11.90396463	      0.00000000	      0.00000000	    -12.87425435	      0.00000000	      0.00000000	     79.99181001	     45.03120262	      0.00000000	    -12.87425435	      0.00000000	      0.00000000	     79.99181001	     45.03120262	      0.00000000
      0.23333333	      1.23462410	      3.52100562	     -3.44797239	     -0.30868231	      0.93985608	      0.16999076	     23.86788317	     -0.89523856	     -0.29024741	     14.76117765	     -1.83687666	     -4.04494302	      0.04379838	     -0.01299026	      0.00603325	     30.59472122	     -0.37095531	     -0.44690884	      0.00330406	      0.00256094	     -0.00120468	     20.81200868	      3.45399868	      0.00000000	     -0.68917853	     -1.94512128	      6.23395646	      0.06513700	      0.04435000	     -0.41871200	      0.89430749	     -0.20398994	     -0.23553167	      0.00000000	    -23.29343400	      0.20499225	      5.90537162	     11.90239008	      0.00000000	      0.00000000	    -12.87550513	      0.00000000	      0.00000000	     79.99181830	     45.03110286	      0.00000000	    -12.87550513	      0.00000000	      0.00000000	     79.99181830	     45.03110286	      0.00000000
      0.24166667	      1.09154859	      3.50022584	     -3.38366733	     -0.30112323	      0.94167299	      0.17114572	     23.23648703	     -0.85678754	     -0.48955749	     14.56660386	     -1.82245279	     -4.09232026	      0.04397939	     -0.01271107	      0.00602942	     30.19329832	     -0.37226528	     -0.40144440	      0.00331728	      0.00255727	     -0.00120407	     20.96078026	      3.51565987	      0.00000000	      0.67239464	     -1.37075556	      6.74234861	      0.06513700	      0.04435000	     -0.41871200	      0.92786000	     -0.19714131	     -0.23642955	      0.00000000	    -23.06475178	      0.13394552	      6.30738351	     11.89981127	      0.00000000	      0.00000000	    -12.87755653	      0.00000000	      0.00000000	     79.99183190	     45.03093976	      0.00000000	    -12.87755653	      0.00000000	      0.00000000	     79.99183190	     45.03093976	      0.00000000
      0.25000000	      0.94230554	      3.48166384	     -3.31764072	     -0.29363147	      0.94352268	      0.17211022	     22.57965705	     -0.82164689	     -0.68076220	     14.34179520	     -1.80533433	     -4.14846293	      0.04418788	     -0.01238389	      0.00602328	     29.72613435	     -0.37364468	     -0.34801183	      0.00333387	      0.00255225	     -0.00120348	     21.03392181	      3.52726739	      0.00000000	      2.05770669	     -0.84585427	      7.18551786	      0.06513700	      0.04435000	     -0.41871200	      0.95964895	     -0.17859142	     -0.23882252	      0.00000000	    -22.82236237	      0.07393440	      6.69361489	     11.89676381	      0.00000000	      0.00000000	    -12.87998581	      0.00000000	      0.00000000	     79.99184800	     45.03074753	      0.00000000	    -12.87998581	      0.00000000	      0.00000000	     79.99184800	     45.03074753	      0.00000000
      0.25833333	      0.78871269	      3.48844389	     -3.24066223	     -0.28624209	      0.94541852	      0.17290773	     21.89568223	     -0.82764785	     -0.87601281	     14.08511072	     -1.78513402	     -4.21453891	      0.04442524	     -0.01200389	      0.00601393	     29.18780996	     -0.37502781	     -0.28576952	      0.00335463	      0.00254553	     -0.00120299	     21.07166257	      3.51061537	      0.00000000	      3.47192973	     -0.40731756	      7.54171201	      0.06513700	      0.04435000	     -0.41871200	      0.98832350	     -0.15962676	     -0.24595878	      0.00000000	    -22.57026793	      0.00098456	      7.09439424	     11.89465693	      0.00000000	      0.00000000	    -12.88166861	      0.00000000	      0.00000000	     79.99185914	     45.03061495	      0.00000000	    -12.88166861	      0.00000000	      0.00000000	     79.99185914	     45.03061495	      0.00000000
      0.26666667	      0.59874331	      3.50254602	     -2.99947341	     -0.27899641	      0.94732479	      0.17348196	     21.19519716	     -0.87360246	     -1.04896828	     13.79540370	     -1.76139536	     -4.29186700	      0.04469242	     -0.01156611	      0.00600025	     28.57314994	     -0.37631888	     -0.21385565	      0.00338052	      0.00253668	     -0.00120268	     21.09962565	      3.45488281	      0.00000000	      4.99279042	     -0.01440711	      7.65885941	      0.06513700	      0.04435000	     -0.41871200	      1.01447163	     -0.14424212	     -0.25329419	      0.00000000	    -22.28291624	     -0.03499528	      7.29644906	     11.89086666	      0.00000000	      0.00000000	    -12.88470269	      0.00000000	      0.00000000	     79.99187920	     45.03037712	      0.00000000	    -12.88470269	      0.00000000	      0.00000000	     79.99187920	     45.03037712	      0.00000000
      0.27500000	      0.41077550	      3.55476511	     -2.95818080	     -0.27178598	      0.94929738	      0.17445822	     20.50043213	     -0.90886323	     -1.14779411	     13.48255899	     -1.73448213	     -4.37897621	      0.04498032	     -0.01108179	      0.00598156	     27.89983701	     -0.37735533	     -0.13408590	      0.00341163	      0.00252565	     -0.00120262	     21.07283750	      3.30780686	      0.00000000	      6.39958692	      0.34310511	      7.98053712	      0.06513700	      0.04435000	     -0.41871200	      1.03475253	     -0.13494112	     -0.26045446	      0.00000000	    -21.98386166	     -0.19641736	      7.71339859	     11.89021332	      0.00000000	      0.00000000	    -12.88522655	      0.00000000	      0.00000000	     79.99188267	     45.03033621	      0.00000000	    -12.88522655	      0.00000000	      0.00000000	     79.99188267	     45.03033621	      0.00000000
      0.28333333	      0.16113902	      3.57588938	     -2.84181268	     -0.26466037	      0.95121349	      0.17527582	     19.84672436	     -0.89392861	     -1.14425210	     13.15933105	     -1.70504893	     -4.47331069	      0.04527741	     -0.01056745	      0.00595772	     27.19219259	     -0.37798361	     -0.04918464	      0.00344748	      0.00251269	     -0.00120286	     20.92476094	      3.02109732	      0.00000000	      7.86435990	      0.66663615	      8.12014470	      0.06513700	      0.04435000	     -0.41871200	      1.05207213	     -0.12959501	     -0.26543719	      0.00000000	    -21.61439564	     -0.31124509	      8.11775766	     11.88957108	      0.00000000	      0.00000000	    -12.88574176	      0.00000000	      0.00000000	     79.99188607	     45.03029602	      0.00000000	    -12.88574176	      0.00000000	      0.00000000	     79.99188607	     45.03029602	      0.00000000
      0.29166667	     -0.20791277	      3.49518253	     -2.22315562	     -0.25758642	      0.95303188	      0.17515027	     19.22066788	     -0.82280463	     -1.07897245	     12.82327148	     -1.67235711	     -4.57650031	      0.04558642	     -0.01001576	      0.00592779	     26.44133808	     -0.37808038	      0.04200551	      0.00348917	      0.00249754	     -0.00120339	     20.65448709	      2.59068747	      0.00000000	      9.62264046	      0.90517813	      7.55049317	      0.06513700	      0.04435000	     -0.41871200	      1.06960530	     -0.12790302	     -0.26904066	      0.00000000	    -21.11049310	     -0.15092742	      8.03370032	     11.88451454	      0.00000000	      0.00000000	    -12.89029450	      0.00000000	      0.00000000	     79.99191449	     45.02999927	      0.00000000	    -12.89029450	      0.00000000	      0.00000000	     79.99191449	     45.02999927	      0.00000000
